<mxfile host="app.diagrams.net" modified="2023-05-24T04:30:28.135Z" agent="Mozilla/5.0 (Windows NT 10.0; Win64; x64) AppleWebKit/537.36 (KHTML, like Gecko) Chrome/113.0.0.0 Safari/537.36" etag="jCjkuhrD_eefgApjBUaB" version="21.1.9" type="github">
  <diagram name="第 1 页" id="xSHDLC9iTLeJKKkzIBzT">
    <mxGraphModel dx="4175" dy="1516" grid="1" gridSize="10" guides="1" tooltips="1" connect="1" arrows="1" fold="1" page="1" pageScale="1" pageWidth="827" pageHeight="1169" math="0" shadow="0">
      <root>
        <mxCell id="0" />
        <mxCell id="1" parent="0" />
        <mxCell id="78vTQtUPauRNi7CbJsIa-13" value="" style="edgeStyle=orthogonalEdgeStyle;rounded=0;orthogonalLoop=1;jettySize=auto;html=1;" edge="1" parent="1" source="78vTQtUPauRNi7CbJsIa-1" target="78vTQtUPauRNi7CbJsIa-3">
          <mxGeometry relative="1" as="geometry" />
        </mxCell>
        <mxCell id="78vTQtUPauRNi7CbJsIa-43" value="" style="edgeStyle=orthogonalEdgeStyle;rounded=0;orthogonalLoop=1;jettySize=auto;html=1;" edge="1" parent="1" source="78vTQtUPauRNi7CbJsIa-1" target="78vTQtUPauRNi7CbJsIa-3">
          <mxGeometry relative="1" as="geometry" />
        </mxCell>
        <mxCell id="78vTQtUPauRNi7CbJsIa-1" value="Evenet服务接收视联推送的数据" style="rounded=0;whiteSpace=wrap;html=1;" vertex="1" parent="1">
          <mxGeometry x="380" y="130" width="120" height="60" as="geometry" />
        </mxCell>
        <mxCell id="78vTQtUPauRNi7CbJsIa-14" value="" style="edgeStyle=orthogonalEdgeStyle;rounded=0;orthogonalLoop=1;jettySize=auto;html=1;" edge="1" parent="1" target="78vTQtUPauRNi7CbJsIa-8">
          <mxGeometry relative="1" as="geometry">
            <mxPoint x="440" y="384" as="sourcePoint" />
          </mxGeometry>
        </mxCell>
        <mxCell id="78vTQtUPauRNi7CbJsIa-45" value="" style="edgeStyle=orthogonalEdgeStyle;rounded=0;orthogonalLoop=1;jettySize=auto;html=1;" edge="1" parent="1" source="78vTQtUPauRNi7CbJsIa-3" target="78vTQtUPauRNi7CbJsIa-44">
          <mxGeometry relative="1" as="geometry" />
        </mxCell>
        <mxCell id="78vTQtUPauRNi7CbJsIa-3" value="RocketMq" style="rounded=0;whiteSpace=wrap;html=1;" vertex="1" parent="1">
          <mxGeometry x="380" y="250" width="120" height="60" as="geometry" />
        </mxCell>
        <mxCell id="78vTQtUPauRNi7CbJsIa-16" value="" style="edgeStyle=orthogonalEdgeStyle;rounded=0;orthogonalLoop=1;jettySize=auto;html=1;" edge="1" parent="1">
          <mxGeometry relative="1" as="geometry">
            <mxPoint x="440" y="741" as="sourcePoint" />
            <mxPoint x="440" y="821" as="targetPoint" />
          </mxGeometry>
        </mxCell>
        <mxCell id="78vTQtUPauRNi7CbJsIa-7" value="查询视联南向接口获取区域信息" style="rounded=0;whiteSpace=wrap;html=1;" vertex="1" parent="1">
          <mxGeometry x="380" y="681" width="120" height="60" as="geometry" />
        </mxCell>
        <mxCell id="78vTQtUPauRNi7CbJsIa-10" value="" style="edgeStyle=orthogonalEdgeStyle;rounded=0;orthogonalLoop=1;jettySize=auto;html=1;" edge="1" parent="1" target="78vTQtUPauRNi7CbJsIa-9">
          <mxGeometry relative="1" as="geometry">
            <mxPoint x="390" y="581" as="sourcePoint" />
          </mxGeometry>
        </mxCell>
        <mxCell id="78vTQtUPauRNi7CbJsIa-12" value="" style="edgeStyle=orthogonalEdgeStyle;rounded=0;orthogonalLoop=1;jettySize=auto;html=1;" edge="1" parent="1" target="78vTQtUPauRNi7CbJsIa-11">
          <mxGeometry relative="1" as="geometry">
            <mxPoint x="490" y="581" as="sourcePoint" />
          </mxGeometry>
        </mxCell>
        <mxCell id="78vTQtUPauRNi7CbJsIa-26" value="" style="edgeStyle=orthogonalEdgeStyle;rounded=0;orthogonalLoop=1;jettySize=auto;html=1;" edge="1" parent="1" target="78vTQtUPauRNi7CbJsIa-7">
          <mxGeometry relative="1" as="geometry">
            <mxPoint x="440" y="621" as="sourcePoint" />
          </mxGeometry>
        </mxCell>
        <mxCell id="78vTQtUPauRNi7CbJsIa-8" value="区分数据类型" style="rhombus;whiteSpace=wrap;html=1;" vertex="1" parent="1">
          <mxGeometry x="390" y="541" width="100" height="80" as="geometry" />
        </mxCell>
        <mxCell id="78vTQtUPauRNi7CbJsIa-34" value="" style="edgeStyle=orthogonalEdgeStyle;rounded=0;orthogonalLoop=1;jettySize=auto;html=1;" edge="1" parent="1" source="78vTQtUPauRNi7CbJsIa-9" target="78vTQtUPauRNi7CbJsIa-33">
          <mxGeometry relative="1" as="geometry" />
        </mxCell>
        <mxCell id="78vTQtUPauRNi7CbJsIa-9" value="AI消息转译并入库" style="whiteSpace=wrap;html=1;" vertex="1" parent="1">
          <mxGeometry x="200" y="551" width="120" height="60" as="geometry" />
        </mxCell>
        <mxCell id="78vTQtUPauRNi7CbJsIa-29" value="" style="edgeStyle=orthogonalEdgeStyle;rounded=0;orthogonalLoop=1;jettySize=auto;html=1;" edge="1" parent="1" source="78vTQtUPauRNi7CbJsIa-11" target="78vTQtUPauRNi7CbJsIa-28">
          <mxGeometry relative="1" as="geometry" />
        </mxCell>
        <mxCell id="78vTQtUPauRNi7CbJsIa-11" value="&lt;p class=&quot;MsoNormal&quot;&gt;&lt;font face=&quot;宋体&quot;&gt;记录并入库&lt;/font&gt;&lt;font face=&quot;Calibri&quot;&gt;AI&lt;/font&gt;&lt;font face=&quot;宋体&quot;&gt;套餐绑定关系与开关状态&lt;/font&gt;&lt;/p&gt;" style="whiteSpace=wrap;html=1;" vertex="1" parent="1">
          <mxGeometry x="568" y="551" width="120" height="60" as="geometry" />
        </mxCell>
        <mxCell id="78vTQtUPauRNi7CbJsIa-18" value="" style="edgeStyle=orthogonalEdgeStyle;rounded=0;orthogonalLoop=1;jettySize=auto;html=1;" edge="1" parent="1" source="78vTQtUPauRNi7CbJsIa-15" target="78vTQtUPauRNi7CbJsIa-17">
          <mxGeometry relative="1" as="geometry" />
        </mxCell>
        <mxCell id="78vTQtUPauRNi7CbJsIa-15" value="分隔区域字段信息并记录入库六层级区域" style="whiteSpace=wrap;html=1;rounded=0;" vertex="1" parent="1">
          <mxGeometry x="380" y="819" width="120" height="60" as="geometry" />
        </mxCell>
        <mxCell id="78vTQtUPauRNi7CbJsIa-20" value="" style="edgeStyle=orthogonalEdgeStyle;rounded=0;orthogonalLoop=1;jettySize=auto;html=1;" edge="1" parent="1" source="78vTQtUPauRNi7CbJsIa-17" target="78vTQtUPauRNi7CbJsIa-19">
          <mxGeometry relative="1" as="geometry" />
        </mxCell>
        <mxCell id="78vTQtUPauRNi7CbJsIa-17" value="&lt;p class=&quot;MsoNormal&quot;&gt;记录设备与设备主手机号&lt;/p&gt;" style="whiteSpace=wrap;html=1;rounded=0;" vertex="1" parent="1">
          <mxGeometry x="380" y="959" width="120" height="60" as="geometry" />
        </mxCell>
        <mxCell id="78vTQtUPauRNi7CbJsIa-22" value="" style="edgeStyle=orthogonalEdgeStyle;rounded=0;orthogonalLoop=1;jettySize=auto;html=1;" edge="1" parent="1" source="78vTQtUPauRNi7CbJsIa-19" target="78vTQtUPauRNi7CbJsIa-21">
          <mxGeometry relative="1" as="geometry" />
        </mxCell>
        <mxCell id="78vTQtUPauRNi7CbJsIa-19" value="&lt;p class=&quot;MsoNormal&quot;&gt;&lt;span style=&quot;mso-spacerun:&#39;yes&#39;;font-family:宋体;mso-ascii-font-family:Calibri;&#xa;mso-hansi-font-family:Calibri;mso-bidi-font-family:&#39;Times New Roman&#39;;font-size:10.5000pt;&#xa;mso-font-kerning:1.0000pt;&quot;&gt;&lt;font face=&quot;宋体&quot;&gt;记录&lt;/font&gt;&lt;/span&gt;&lt;span style=&quot;mso-spacerun:&#39;yes&#39;;font-family:宋体;mso-ascii-font-family:Calibri;&#xa;mso-hansi-font-family:Calibri;mso-bidi-font-family:&#39;Times New Roman&#39;;font-size:10.5000pt;&#xa;mso-font-kerning:1.0000pt;&quot;&gt;&lt;font face=&quot;宋体&quot;&gt;设备数据&lt;/font&gt;&lt;/span&gt;&lt;span style=&quot;mso-spacerun:&#39;yes&#39;;font-family:宋体;mso-ascii-font-family:Calibri;&#xa;mso-hansi-font-family:Calibri;mso-bidi-font-family:&#39;Times New Roman&#39;;font-size:10.5000pt;&#xa;mso-font-kerning:1.0000pt;&quot;&gt;&lt;font face=&quot;宋体&quot;&gt;信息并&lt;/font&gt;&lt;/span&gt;&lt;span style=&quot;mso-spacerun:&#39;yes&#39;;font-family:宋体;mso-ascii-font-family:Calibri;&#xa;mso-hansi-font-family:Calibri;mso-bidi-font-family:&#39;Times New Roman&#39;;font-size:10.5000pt;&#xa;mso-font-kerning:1.0000pt;&quot;&gt;&lt;font face=&quot;宋体&quot;&gt;入库&lt;/font&gt;&lt;/span&gt;&lt;/p&gt;" style="whiteSpace=wrap;html=1;rounded=0;" vertex="1" parent="1">
          <mxGeometry x="380" y="1099" width="120" height="60" as="geometry" />
        </mxCell>
        <mxCell id="78vTQtUPauRNi7CbJsIa-24" value="" style="edgeStyle=orthogonalEdgeStyle;rounded=0;orthogonalLoop=1;jettySize=auto;html=1;" edge="1" parent="1" source="78vTQtUPauRNi7CbJsIa-21" target="78vTQtUPauRNi7CbJsIa-23">
          <mxGeometry relative="1" as="geometry" />
        </mxCell>
        <mxCell id="78vTQtUPauRNi7CbJsIa-21" value="&lt;p class=&quot;MsoNormal&quot;&gt;&lt;font face=&quot;Calibri&quot;&gt;MQ&lt;/font&gt;&lt;font face=&quot;宋体&quot;&gt;异步推送设备绑定信息到乡村&lt;/font&gt;&lt;/p&gt;" style="whiteSpace=wrap;html=1;rounded=0;" vertex="1" parent="1">
          <mxGeometry x="380" y="1239" width="120" height="60" as="geometry" />
        </mxCell>
        <mxCell id="78vTQtUPauRNi7CbJsIa-23" value="&lt;font style=&quot;font-size: 24px;&quot;&gt;乡村&lt;/font&gt;" style="whiteSpace=wrap;html=1;rounded=0;" vertex="1" parent="1">
          <mxGeometry x="380" y="1379" width="120" height="60" as="geometry" />
        </mxCell>
        <mxCell id="78vTQtUPauRNi7CbJsIa-25" value="级联数据" style="text;html=1;align=center;verticalAlign=middle;resizable=0;points=[];autosize=1;strokeColor=none;fillColor=none;" vertex="1" parent="1">
          <mxGeometry x="434" y="629" width="70" height="30" as="geometry" />
        </mxCell>
        <mxCell id="78vTQtUPauRNi7CbJsIa-27" value="AI套餐开关" style="text;html=1;align=center;verticalAlign=middle;resizable=0;points=[];autosize=1;strokeColor=none;fillColor=none;" vertex="1" parent="1">
          <mxGeometry x="483" y="551" width="80" height="30" as="geometry" />
        </mxCell>
        <mxCell id="78vTQtUPauRNi7CbJsIa-31" value="" style="edgeStyle=orthogonalEdgeStyle;rounded=0;orthogonalLoop=1;jettySize=auto;html=1;" edge="1" parent="1" source="78vTQtUPauRNi7CbJsIa-28" target="78vTQtUPauRNi7CbJsIa-30">
          <mxGeometry relative="1" as="geometry" />
        </mxCell>
        <mxCell id="78vTQtUPauRNi7CbJsIa-28" value="&lt;p class=&quot;MsoNormal&quot;&gt;&lt;font face=&quot;宋体&quot;&gt;推送&lt;/font&gt;&lt;font face=&quot;Calibri&quot;&gt;AI&lt;/font&gt;&lt;font face=&quot;宋体&quot;&gt;套餐绑定与&lt;/font&gt;&lt;font face=&quot;Calibri&quot;&gt;AI&lt;/font&gt;&lt;font face=&quot;宋体&quot;&gt;开关数据到乡村&lt;/font&gt;&lt;/p&gt;" style="whiteSpace=wrap;html=1;" vertex="1" parent="1">
          <mxGeometry x="768" y="551" width="120" height="60" as="geometry" />
        </mxCell>
        <mxCell id="78vTQtUPauRNi7CbJsIa-30" value="&lt;p class=&quot;MsoNormal&quot;&gt;&lt;font style=&quot;font-size: 24px;&quot; face=&quot;宋体&quot;&gt;乡村&lt;/font&gt;&lt;/p&gt;" style="whiteSpace=wrap;html=1;" vertex="1" parent="1">
          <mxGeometry x="968" y="551" width="120" height="60" as="geometry" />
        </mxCell>
        <mxCell id="78vTQtUPauRNi7CbJsIa-32" value="AI消息" style="text;html=1;align=center;verticalAlign=middle;resizable=0;points=[];autosize=1;strokeColor=none;fillColor=none;" vertex="1" parent="1">
          <mxGeometry x="330" y="549" width="60" height="30" as="geometry" />
        </mxCell>
        <mxCell id="78vTQtUPauRNi7CbJsIa-36" value="" style="edgeStyle=orthogonalEdgeStyle;rounded=0;orthogonalLoop=1;jettySize=auto;html=1;" edge="1" parent="1" source="78vTQtUPauRNi7CbJsIa-33" target="78vTQtUPauRNi7CbJsIa-35">
          <mxGeometry relative="1" as="geometry" />
        </mxCell>
        <mxCell id="78vTQtUPauRNi7CbJsIa-33" value="记录图片关联关系" style="whiteSpace=wrap;html=1;" vertex="1" parent="1">
          <mxGeometry y="551" width="120" height="60" as="geometry" />
        </mxCell>
        <mxCell id="78vTQtUPauRNi7CbJsIa-38" value="" style="edgeStyle=orthogonalEdgeStyle;rounded=0;orthogonalLoop=1;jettySize=auto;html=1;" edge="1" parent="1" source="78vTQtUPauRNi7CbJsIa-35" target="78vTQtUPauRNi7CbJsIa-37">
          <mxGeometry relative="1" as="geometry" />
        </mxCell>
        <mxCell id="78vTQtUPauRNi7CbJsIa-35" value="&lt;p class=&quot;MsoNormal&quot;&gt;&lt;font face=&quot;宋体&quot;&gt;推送&lt;/font&gt;&lt;font face=&quot;Calibri&quot;&gt;AI&lt;/font&gt;&lt;font face=&quot;宋体&quot;&gt;消息数据到乡村&lt;/font&gt;&lt;/p&gt;" style="whiteSpace=wrap;html=1;" vertex="1" parent="1">
          <mxGeometry x="-200" y="551" width="120" height="60" as="geometry" />
        </mxCell>
        <mxCell id="78vTQtUPauRNi7CbJsIa-37" value="&lt;p class=&quot;MsoNormal&quot;&gt;&lt;font style=&quot;font-size: 24px;&quot;&gt;乡村&lt;/font&gt;&lt;/p&gt;" style="whiteSpace=wrap;html=1;" vertex="1" parent="1">
          <mxGeometry x="-400" y="551" width="120" height="60" as="geometry" />
        </mxCell>
        <mxCell id="78vTQtUPauRNi7CbJsIa-42" value="" style="edgeStyle=orthogonalEdgeStyle;rounded=0;orthogonalLoop=1;jettySize=auto;html=1;" edge="1" parent="1" source="78vTQtUPauRNi7CbJsIa-41" target="78vTQtUPauRNi7CbJsIa-1">
          <mxGeometry relative="1" as="geometry" />
        </mxCell>
        <mxCell id="78vTQtUPauRNi7CbJsIa-41" value="&lt;b&gt;&lt;font style=&quot;font-size: 24px;&quot;&gt;视联网&lt;/font&gt;&lt;/b&gt;" style="rounded=0;whiteSpace=wrap;html=1;" vertex="1" parent="1">
          <mxGeometry x="380" y="5" width="120" height="60" as="geometry" />
        </mxCell>
        <mxCell id="78vTQtUPauRNi7CbJsIa-44" value="数据报文解密" style="whiteSpace=wrap;html=1;rounded=0;" vertex="1" parent="1">
          <mxGeometry x="380" y="390" width="120" height="60" as="geometry" />
        </mxCell>
        <mxCell id="78vTQtUPauRNi7CbJsIa-46" value="消息入队列" style="text;html=1;align=center;verticalAlign=middle;resizable=0;points=[];autosize=1;strokeColor=none;fillColor=none;" vertex="1" parent="1">
          <mxGeometry x="437" y="206" width="80" height="30" as="geometry" />
        </mxCell>
        <mxCell id="78vTQtUPauRNi7CbJsIa-47" value="异步消费" style="text;html=1;align=center;verticalAlign=middle;resizable=0;points=[];autosize=1;strokeColor=none;fillColor=none;" vertex="1" parent="1">
          <mxGeometry x="435" y="338" width="70" height="30" as="geometry" />
        </mxCell>
      </root>
    </mxGraphModel>
  </diagram>
</mxfile>
